<mxfile host="app.diagrams.net" modified="2023-03-21T21:27:11.804Z" agent="5.0 (Windows NT 10.0; Win64; x64) AppleWebKit/537.36 (KHTML, like Gecko) Chrome/111.0.0.0 Safari/537.36" etag="k8VHIUqBexYdiAt8GQEh" version="21.0.10" type="github">
  <diagram name="Page-1" id="XOcD_i_HRdQijwyulvwa">
    <mxGraphModel dx="1673" dy="1044" grid="1" gridSize="10" guides="1" tooltips="1" connect="1" arrows="1" fold="1" page="1" pageScale="1" pageWidth="850" pageHeight="1100" math="0" shadow="0">
      <root>
        <mxCell id="0" />
        <mxCell id="1" parent="0" />
        <mxCell id="qPBq6bijW4uQ8ItST2WP-15" value="" style="rounded=1;whiteSpace=wrap;html=1;shadow=1;glass=0;fillColor=#E6E6E6;fontColor=#ffffff;strokeColor=#FFFF33;" parent="1" vertex="1">
          <mxGeometry x="50" y="110" width="740" height="380" as="geometry" />
        </mxCell>
        <mxCell id="qPBq6bijW4uQ8ItST2WP-7" value="Piezoelectric strip" style="rounded=0;whiteSpace=wrap;html=1;fillColor=#FFFF33;strokeColor=#d6b656;shadow=1;glass=1;" parent="1" vertex="1">
          <mxGeometry x="160" y="220" width="120" height="60" as="geometry" />
        </mxCell>
        <mxCell id="qPBq6bijW4uQ8ItST2WP-8" value="Op-amp signal&amp;nbsp;&lt;br&gt;amplifier" style="rounded=0;whiteSpace=wrap;html=1;fillColor=#FFFF33;strokeColor=#d6b656;shadow=1;glass=1;" parent="1" vertex="1">
          <mxGeometry x="310" y="220" width="120" height="60" as="geometry" />
        </mxCell>
        <mxCell id="qPBq6bijW4uQ8ItST2WP-9" value="&lt;b&gt;&lt;font style=&quot;font-size: 21px;&quot;&gt;Hardware Block Diagram&lt;/font&gt;&lt;/b&gt;" style="text;html=1;align=center;verticalAlign=middle;resizable=0;points=[];autosize=1;strokeColor=none;fillColor=none;" parent="1" vertex="1">
          <mxGeometry x="540" y="30" width="270" height="40" as="geometry" />
        </mxCell>
        <mxCell id="B9slBTH1BqJqdPTxlTyz-17" value="" style="edgeStyle=orthogonalEdgeStyle;rounded=0;orthogonalLoop=1;jettySize=auto;html=1;" edge="1" parent="1" source="qPBq6bijW4uQ8ItST2WP-11" target="qPBq6bijW4uQ8ItST2WP-8">
          <mxGeometry relative="1" as="geometry" />
        </mxCell>
        <mxCell id="qPBq6bijW4uQ8ItST2WP-11" value="Comparator" style="rounded=0;whiteSpace=wrap;html=1;fillColor=#FFFF33;strokeColor=#d6b656;shadow=1;glass=1;" parent="1" vertex="1">
          <mxGeometry x="460" y="220" width="120" height="60" as="geometry" />
        </mxCell>
        <mxCell id="qPBq6bijW4uQ8ItST2WP-12" value="555 timer IC" style="rounded=0;whiteSpace=wrap;html=1;fillColor=#FFFF33;strokeColor=#d6b656;shadow=1;glass=1;" parent="1" vertex="1">
          <mxGeometry x="170" y="360" width="120" height="60" as="geometry" />
        </mxCell>
        <mxCell id="qPBq6bijW4uQ8ItST2WP-16" value="Switching Mosfet&lt;br&gt;2n7000" style="rounded=0;whiteSpace=wrap;html=1;fillColor=#FFFF33;strokeColor=#d6b656;shadow=1;glass=1;" parent="1" vertex="1">
          <mxGeometry x="355" y="400" width="120" height="60" as="geometry" />
        </mxCell>
        <mxCell id="qPBq6bijW4uQ8ItST2WP-17" value="Switching Mosfet&lt;br&gt;2n7000" style="rounded=0;whiteSpace=wrap;html=1;fillColor=#FFFF33;strokeColor=#d6b656;shadow=1;glass=1;" parent="1" vertex="1">
          <mxGeometry x="355" y="320" width="120" height="60" as="geometry" />
        </mxCell>
        <mxCell id="qPBq6bijW4uQ8ItST2WP-19" value="&lt;div style=&quot;&quot;&gt;&lt;span style=&quot;font-size: 11px; color: rgb(255, 255, 255); background-color: initial;&quot;&gt;Adjustable&lt;/span&gt;&lt;br&gt;&lt;/div&gt;&lt;font color=&quot;#ffffff&quot; style=&quot;font-size: 11px;&quot;&gt;&lt;span style=&quot;font-family: Helvetica; font-style: normal; font-variant-ligatures: normal; font-variant-caps: normal; font-weight: 400; letter-spacing: normal; orphans: 2; text-indent: 0px; text-transform: none; widows: 2; word-spacing: 0px; -webkit-text-stroke-width: 0px; background-color: rgb(251, 251, 251); text-decoration-thickness: initial; text-decoration-style: initial; text-decoration-color: initial; float: none; display: inline !important;&quot;&gt;&lt;div style=&quot;&quot;&gt;Potentiometer&lt;/div&gt;&lt;/span&gt;&lt;/font&gt;" style="ellipse;whiteSpace=wrap;html=1;aspect=fixed;fillColor=#1ba1e2;strokeColor=#006EAF;shadow=1;align=center;fontColor=#ffffff;" parent="1" vertex="1">
          <mxGeometry x="610" y="210" width="80" height="80" as="geometry" />
        </mxCell>
        <mxCell id="qPBq6bijW4uQ8ItST2WP-22" value="LED" style="triangle;whiteSpace=wrap;html=1;fillColor=#FF3333;strokeColor=#36393d;shadow=1;rounded=1;" parent="1" vertex="1">
          <mxGeometry x="540" y="325" width="40" height="50" as="geometry" />
        </mxCell>
        <mxCell id="qPBq6bijW4uQ8ItST2WP-25" value="Raspberry PI&lt;br&gt;Micro-controller" style="rounded=1;whiteSpace=wrap;html=1;shadow=1;glass=1;fillColor=#FF9933;fontColor=#ffffff;strokeColor=#A50040;" parent="1" vertex="1">
          <mxGeometry x="510" y="400" width="120" height="60" as="geometry" />
        </mxCell>
        <mxCell id="qPBq6bijW4uQ8ItST2WP-27" value="" style="endArrow=classic;html=1;rounded=1;strokeWidth=3;shadow=1;strokeColor=#404040;exitX=1.013;exitY=0.541;exitDx=0;exitDy=0;exitPerimeter=0;entryX=-0.01;entryY=0.541;entryDx=0;entryDy=0;entryPerimeter=0;" parent="1" source="qPBq6bijW4uQ8ItST2WP-7" target="qPBq6bijW4uQ8ItST2WP-8" edge="1">
          <mxGeometry width="50" height="50" relative="1" as="geometry">
            <mxPoint x="260" y="280" as="sourcePoint" />
            <mxPoint x="310" y="230" as="targetPoint" />
          </mxGeometry>
        </mxCell>
        <mxCell id="qPBq6bijW4uQ8ItST2WP-28" value="" style="endArrow=classic;html=1;rounded=1;strokeWidth=3;shadow=1;strokeColor=#404040;exitX=1.013;exitY=0.541;exitDx=0;exitDy=0;exitPerimeter=0;entryX=-0.01;entryY=0.541;entryDx=0;entryDy=0;entryPerimeter=0;" parent="1" edge="1">
          <mxGeometry width="50" height="50" relative="1" as="geometry">
            <mxPoint x="433" y="249.85000000000002" as="sourcePoint" />
            <mxPoint x="460" y="249.85000000000002" as="targetPoint" />
          </mxGeometry>
        </mxCell>
        <mxCell id="qPBq6bijW4uQ8ItST2WP-29" value="" style="endArrow=classic;html=1;rounded=1;strokeWidth=3;shadow=1;strokeColor=#404040;exitX=1.013;exitY=0.541;exitDx=0;exitDy=0;exitPerimeter=0;entryX=-0.01;entryY=0.541;entryDx=0;entryDy=0;entryPerimeter=0;" parent="1" edge="1">
          <mxGeometry width="50" height="50" relative="1" as="geometry">
            <mxPoint x="583" y="249.82" as="sourcePoint" />
            <mxPoint x="610" y="249.82" as="targetPoint" />
          </mxGeometry>
        </mxCell>
        <mxCell id="qPBq6bijW4uQ8ItST2WP-31" value="" style="endArrow=classic;html=1;rounded=1;strokeWidth=3;shadow=1;strokeColor=#404040;exitX=0.5;exitY=1;exitDx=0;exitDy=0;entryX=0.5;entryY=0;entryDx=0;entryDy=0;" parent="1" source="qPBq6bijW4uQ8ItST2WP-11" target="qPBq6bijW4uQ8ItST2WP-12" edge="1">
          <mxGeometry width="50" height="50" relative="1" as="geometry">
            <mxPoint x="322" y="292" as="sourcePoint" />
            <mxPoint x="349" y="292" as="targetPoint" />
            <Array as="points">
              <mxPoint x="520" y="300" />
              <mxPoint x="230" y="300" />
            </Array>
          </mxGeometry>
        </mxCell>
        <mxCell id="qPBq6bijW4uQ8ItST2WP-32" value="" style="endArrow=classic;html=1;rounded=1;strokeWidth=3;shadow=1;strokeColor=#404040;exitX=0.991;exitY=0.34;exitDx=0;exitDy=0;exitPerimeter=0;entryX=0;entryY=0.5;entryDx=0;entryDy=0;" parent="1" source="qPBq6bijW4uQ8ItST2WP-12" target="qPBq6bijW4uQ8ItST2WP-17" edge="1">
          <mxGeometry width="50" height="50" relative="1" as="geometry">
            <mxPoint x="290" y="370" as="sourcePoint" />
            <mxPoint x="317" y="370" as="targetPoint" />
            <Array as="points">
              <mxPoint x="320" y="380" />
              <mxPoint x="320" y="350" />
            </Array>
          </mxGeometry>
        </mxCell>
        <mxCell id="qPBq6bijW4uQ8ItST2WP-33" value="" style="endArrow=classic;html=1;rounded=1;strokeWidth=3;shadow=1;strokeColor=#404040;exitX=1.007;exitY=0.676;exitDx=0;exitDy=0;exitPerimeter=0;entryX=0;entryY=0.5;entryDx=0;entryDy=0;" parent="1" source="qPBq6bijW4uQ8ItST2WP-12" target="qPBq6bijW4uQ8ItST2WP-16" edge="1">
          <mxGeometry width="50" height="50" relative="1" as="geometry">
            <mxPoint x="290" y="390" as="sourcePoint" />
            <mxPoint x="317" y="390" as="targetPoint" />
            <Array as="points">
              <mxPoint x="320" y="400" />
              <mxPoint x="320" y="430" />
            </Array>
          </mxGeometry>
        </mxCell>
        <mxCell id="qPBq6bijW4uQ8ItST2WP-35" value="" style="endArrow=classic;html=1;rounded=1;strokeWidth=3;shadow=1;strokeColor=#404040;exitX=1.013;exitY=0.541;exitDx=0;exitDy=0;exitPerimeter=0;entryX=0;entryY=0.5;entryDx=0;entryDy=0;" parent="1" target="qPBq6bijW4uQ8ItST2WP-22" edge="1">
          <mxGeometry width="50" height="50" relative="1" as="geometry">
            <mxPoint x="475" y="349.71000000000004" as="sourcePoint" />
            <mxPoint x="502" y="349.71000000000004" as="targetPoint" />
          </mxGeometry>
        </mxCell>
        <mxCell id="qPBq6bijW4uQ8ItST2WP-36" value="" style="endArrow=classic;html=1;rounded=1;strokeWidth=3;shadow=1;strokeColor=#404040;exitX=1.013;exitY=0.541;exitDx=0;exitDy=0;exitPerimeter=0;entryX=0;entryY=0.5;entryDx=0;entryDy=0;" parent="1" target="qPBq6bijW4uQ8ItST2WP-25" edge="1">
          <mxGeometry width="50" height="50" relative="1" as="geometry">
            <mxPoint x="475" y="429.85" as="sourcePoint" />
            <mxPoint x="540" y="430.14" as="targetPoint" />
          </mxGeometry>
        </mxCell>
        <mxCell id="qPBq6bijW4uQ8ItST2WP-37" value="&lt;b style=&quot;border-color: var(--border-color);&quot;&gt;&lt;font style=&quot;border-color: var(--border-color); font-size: 14px;&quot; color=&quot;#4d4d4d&quot;&gt;Steering System&lt;/font&gt;&lt;/b&gt;" style="text;html=1;align=center;verticalAlign=middle;resizable=0;points=[];autosize=1;strokeColor=none;fillColor=none;" parent="1" vertex="1">
          <mxGeometry x="370" y="145" width="130" height="30" as="geometry" />
        </mxCell>
        <mxCell id="qPBq6bijW4uQ8ItST2WP-38" value="" style="rounded=1;whiteSpace=wrap;html=1;shadow=1;glass=0;fillColor=#E6E6E6;fontColor=#ffffff;strokeColor=#FFFF33;" parent="1" vertex="1">
          <mxGeometry x="830" y="510" width="350" height="360" as="geometry" />
        </mxCell>
        <mxCell id="qPBq6bijW4uQ8ItST2WP-39" value="&lt;b style=&quot;border-color: var(--border-color);&quot;&gt;&lt;font style=&quot;border-color: var(--border-color); font-size: 14px;&quot; color=&quot;#4d4d4d&quot;&gt;Speaker System&lt;/font&gt;&lt;/b&gt;" style="text;html=1;align=center;verticalAlign=middle;resizable=0;points=[];autosize=1;strokeColor=none;fillColor=none;" parent="1" vertex="1">
          <mxGeometry x="950" y="520" width="130" height="30" as="geometry" />
        </mxCell>
        <mxCell id="qPBq6bijW4uQ8ItST2WP-40" value="Raspberry PI&lt;br&gt;Micro-controller" style="rounded=1;whiteSpace=wrap;html=1;shadow=1;glass=1;fillColor=#FF9933;fontColor=#ffffff;strokeColor=#A50040;" parent="1" vertex="1">
          <mxGeometry x="1010" y="580" width="120" height="60" as="geometry" />
        </mxCell>
        <mxCell id="qPBq6bijW4uQ8ItST2WP-41" value="Switching Mosfet&lt;br&gt;2n7000" style="rounded=0;whiteSpace=wrap;html=1;fillColor=#FFFF33;strokeColor=#d6b656;shadow=1;glass=1;" parent="1" vertex="1">
          <mxGeometry x="1010" y="680" width="120" height="60" as="geometry" />
        </mxCell>
        <mxCell id="qPBq6bijW4uQ8ItST2WP-42" value="&lt;div style=&quot;&quot;&gt;&lt;span style=&quot;font-size: 11px; color: rgb(255, 255, 255); background-color: initial;&quot;&gt;Adjustable&lt;/span&gt;&lt;br&gt;&lt;/div&gt;&lt;font color=&quot;#ffffff&quot; style=&quot;font-size: 11px;&quot;&gt;&lt;span style=&quot;font-family: Helvetica; font-style: normal; font-variant-ligatures: normal; font-variant-caps: normal; font-weight: 400; letter-spacing: normal; orphans: 2; text-indent: 0px; text-transform: none; widows: 2; word-spacing: 0px; -webkit-text-stroke-width: 0px; background-color: rgb(251, 251, 251); text-decoration-thickness: initial; text-decoration-style: initial; text-decoration-color: initial; float: none; display: inline !important;&quot;&gt;&lt;div style=&quot;&quot;&gt;Potentiometer&lt;/div&gt;&lt;div style=&quot;&quot;&gt;(for tone)&lt;/div&gt;&lt;/span&gt;&lt;/font&gt;" style="ellipse;whiteSpace=wrap;html=1;aspect=fixed;fillColor=#1ba1e2;strokeColor=#006EAF;shadow=1;align=center;fontColor=#ffffff;" parent="1" vertex="1">
          <mxGeometry x="870" y="570" width="80" height="80" as="geometry" />
        </mxCell>
        <mxCell id="qPBq6bijW4uQ8ItST2WP-43" value="555 timer IC" style="rounded=0;whiteSpace=wrap;html=1;fillColor=#FFFF33;strokeColor=#d6b656;shadow=1;glass=1;" parent="1" vertex="1">
          <mxGeometry x="850" y="680" width="120" height="60" as="geometry" />
        </mxCell>
        <mxCell id="qPBq6bijW4uQ8ItST2WP-45" value="&lt;div style=&quot;&quot;&gt;&lt;span style=&quot;font-size: 11px; color: rgb(255, 255, 255); background-color: initial;&quot;&gt;Adjustable&lt;/span&gt;&lt;br&gt;&lt;/div&gt;&lt;font color=&quot;#ffffff&quot; style=&quot;font-size: 11px;&quot;&gt;&lt;span style=&quot;font-family: Helvetica; font-style: normal; font-variant-ligatures: normal; font-variant-caps: normal; font-weight: 400; letter-spacing: normal; orphans: 2; text-indent: 0px; text-transform: none; widows: 2; word-spacing: 0px; -webkit-text-stroke-width: 0px; background-color: rgb(251, 251, 251); text-decoration-thickness: initial; text-decoration-style: initial; text-decoration-color: initial; float: none; display: inline !important;&quot;&gt;&lt;div style=&quot;&quot;&gt;Potentiometer&lt;/div&gt;&lt;div style=&quot;&quot;&gt;(for volume)&lt;/div&gt;&lt;/span&gt;&lt;/font&gt;" style="ellipse;whiteSpace=wrap;html=1;aspect=fixed;fillColor=#1ba1e2;strokeColor=#006EAF;shadow=1;align=center;fontColor=#ffffff;" parent="1" vertex="1">
          <mxGeometry x="870" y="770" width="80" height="80" as="geometry" />
        </mxCell>
        <mxCell id="qPBq6bijW4uQ8ItST2WP-47" value="&lt;div style=&quot;&quot;&gt;&lt;br&gt;&lt;/div&gt;" style="ellipse;whiteSpace=wrap;html=1;aspect=fixed;shadow=1;align=center;" parent="1" vertex="1">
          <mxGeometry x="1030" y="770" width="80" height="80" as="geometry" />
        </mxCell>
        <mxCell id="qPBq6bijW4uQ8ItST2WP-46" value="&lt;div style=&quot;&quot;&gt;&lt;span style=&quot;font-size: 11px;&quot;&gt;Speaker&lt;/span&gt;&lt;/div&gt;" style="ellipse;whiteSpace=wrap;html=1;aspect=fixed;fillColor=#1ba1e2;strokeColor=#006EAF;shadow=1;align=center;fontColor=#ffffff;" parent="1" vertex="1">
          <mxGeometry x="1035" y="775" width="70" height="70" as="geometry" />
        </mxCell>
        <mxCell id="qPBq6bijW4uQ8ItST2WP-48" value="" style="endArrow=classic;html=1;rounded=1;strokeWidth=3;shadow=1;strokeColor=#404040;exitX=0.5;exitY=1;exitDx=0;exitDy=0;entryX=0.5;entryY=0;entryDx=0;entryDy=0;" parent="1" source="qPBq6bijW4uQ8ItST2WP-42" target="qPBq6bijW4uQ8ItST2WP-43" edge="1">
          <mxGeometry width="50" height="50" relative="1" as="geometry">
            <mxPoint x="923" y="660" as="sourcePoint" />
            <mxPoint x="950" y="660" as="targetPoint" />
          </mxGeometry>
        </mxCell>
        <mxCell id="qPBq6bijW4uQ8ItST2WP-49" value="" style="endArrow=classic;html=1;rounded=1;strokeWidth=3;shadow=1;strokeColor=#404040;exitX=0.502;exitY=1.026;exitDx=0;exitDy=0;entryX=0.5;entryY=0;entryDx=0;entryDy=0;exitPerimeter=0;" parent="1" source="qPBq6bijW4uQ8ItST2WP-40" target="qPBq6bijW4uQ8ItST2WP-41" edge="1">
          <mxGeometry width="50" height="50" relative="1" as="geometry">
            <mxPoint x="1080" y="640" as="sourcePoint" />
            <mxPoint x="1080" y="670" as="targetPoint" />
          </mxGeometry>
        </mxCell>
        <mxCell id="qPBq6bijW4uQ8ItST2WP-50" value="" style="endArrow=classic;html=1;rounded=1;strokeWidth=3;shadow=1;strokeColor=#404040;exitX=0.5;exitY=1;exitDx=0;exitDy=0;entryX=0.5;entryY=0;entryDx=0;entryDy=0;" parent="1" edge="1">
          <mxGeometry width="50" height="50" relative="1" as="geometry">
            <mxPoint x="909.85" y="740" as="sourcePoint" />
            <mxPoint x="909.85" y="770" as="targetPoint" />
          </mxGeometry>
        </mxCell>
        <mxCell id="qPBq6bijW4uQ8ItST2WP-51" value="" style="endArrow=classic;html=1;rounded=1;strokeWidth=3;shadow=1;strokeColor=#404040;exitX=0;exitY=0.5;exitDx=0;exitDy=0;entryX=1;entryY=0.5;entryDx=0;entryDy=0;" parent="1" source="qPBq6bijW4uQ8ItST2WP-41" target="qPBq6bijW4uQ8ItST2WP-43" edge="1">
          <mxGeometry width="50" height="50" relative="1" as="geometry">
            <mxPoint x="990" y="700" as="sourcePoint" />
            <mxPoint x="991" y="741" as="targetPoint" />
          </mxGeometry>
        </mxCell>
        <mxCell id="qPBq6bijW4uQ8ItST2WP-52" value="" style="endArrow=classic;html=1;rounded=1;strokeWidth=3;shadow=1;strokeColor=#404040;exitX=1;exitY=0.5;exitDx=0;exitDy=0;entryX=0;entryY=0.5;entryDx=0;entryDy=0;" parent="1" source="qPBq6bijW4uQ8ItST2WP-45" target="qPBq6bijW4uQ8ItST2WP-47" edge="1">
          <mxGeometry width="50" height="50" relative="1" as="geometry">
            <mxPoint x="1020" y="780" as="sourcePoint" />
            <mxPoint x="980" y="780" as="targetPoint" />
          </mxGeometry>
        </mxCell>
        <mxCell id="qPBq6bijW4uQ8ItST2WP-53" value="" style="rounded=1;whiteSpace=wrap;html=1;shadow=1;glass=0;fillColor=#E6E6E6;fontColor=#ffffff;strokeColor=#FFFF33;" parent="1" vertex="1">
          <mxGeometry x="830" y="110" width="360" height="370" as="geometry" />
        </mxCell>
        <mxCell id="qPBq6bijW4uQ8ItST2WP-54" value="&lt;b style=&quot;border-color: var(--border-color);&quot;&gt;&lt;font style=&quot;border-color: var(--border-color); font-size: 14px;&quot; color=&quot;#4d4d4d&quot;&gt;Power Supply&lt;/font&gt;&lt;/b&gt;" style="text;html=1;align=center;verticalAlign=middle;resizable=0;points=[];autosize=1;strokeColor=none;fillColor=none;" parent="1" vertex="1">
          <mxGeometry x="945" y="130" width="120" height="30" as="geometry" />
        </mxCell>
        <mxCell id="B9slBTH1BqJqdPTxlTyz-2" value="&lt;font style=&quot;font-size: 12px;&quot; color=&quot;#ffffff&quot;&gt;&lt;span style=&quot;&quot;&gt;LM317&lt;br&gt;+5v&lt;br&gt;&lt;/span&gt;&lt;/font&gt;" style="whiteSpace=wrap;html=1;aspect=fixed;rounded=1;glass=1;shadow=1;fillColor=#e51400;fontColor=#ffffff;strokeColor=#B20000;" vertex="1" parent="1">
          <mxGeometry x="1020" y="370" width="70" height="70" as="geometry" />
        </mxCell>
        <mxCell id="B9slBTH1BqJqdPTxlTyz-3" value="&lt;font color=&quot;#ffffff&quot; style=&quot;font-size: 10px;&quot;&gt;&lt;font style=&quot;font-size: 10px;&quot;&gt;RECOM voltage&lt;/font&gt;&amp;nbsp;&lt;br&gt;regulator&lt;br&gt;+5v&lt;/font&gt;" style="whiteSpace=wrap;html=1;aspect=fixed;rounded=1;glass=1;shadow=1;fillColor=#e51400;fontColor=#ffffff;strokeColor=#B20000;" vertex="1" parent="1">
          <mxGeometry x="1020" y="190" width="70" height="70" as="geometry" />
        </mxCell>
        <mxCell id="B9slBTH1BqJqdPTxlTyz-4" value="&lt;font style=&quot;font-size: 10px;&quot; color=&quot;#fefffa&quot;&gt;&lt;font style=&quot;border-color: var(--border-color); font-size: 10px;&quot;&gt;RECOM voltage&lt;/font&gt;&amp;nbsp;&lt;br&gt;regulator&lt;br style=&quot;border-color: var(--border-color);&quot;&gt;&lt;span style=&quot;&quot;&gt;-5v&lt;/span&gt;&lt;/font&gt;" style="whiteSpace=wrap;html=1;aspect=fixed;rounded=1;glass=1;shadow=1;fillColor=#e51400;fontColor=#ffffff;strokeColor=#B20000;" vertex="1" parent="1">
          <mxGeometry x="1020" y="280" width="70" height="70" as="geometry" />
        </mxCell>
        <mxCell id="B9slBTH1BqJqdPTxlTyz-5" value="&lt;font color=&quot;#ffffff&quot; style=&quot;font-size: 14px;&quot;&gt;+12V&lt;br&gt;battery&lt;/font&gt;" style="whiteSpace=wrap;html=1;aspect=fixed;rounded=1;glass=1;shadow=1;fillColor=#FF3333;" vertex="1" parent="1">
          <mxGeometry x="910" y="275" width="80" height="80" as="geometry" />
        </mxCell>
        <mxCell id="B9slBTH1BqJqdPTxlTyz-8" value="" style="rounded=1;whiteSpace=wrap;html=1;shadow=1;glass=0;fillColor=#E6E6E6;fontColor=#ffffff;strokeColor=#FFFF33;" vertex="1" parent="1">
          <mxGeometry x="339" y="530" width="182" height="290" as="geometry" />
        </mxCell>
        <mxCell id="B9slBTH1BqJqdPTxlTyz-9" value="&lt;font style=&quot;font-size: 12px;&quot; color=&quot;#ffffff&quot;&gt;&lt;span style=&quot;&quot;&gt;BN-220&lt;br&gt;GPS&lt;br&gt;&lt;/span&gt;&lt;/font&gt;" style="whiteSpace=wrap;html=1;aspect=fixed;rounded=1;glass=1;shadow=1;fillColor=#f0a30a;fontColor=#000000;strokeColor=#BD7000;" vertex="1" parent="1">
          <mxGeometry x="392" y="600" width="70" height="70" as="geometry" />
        </mxCell>
        <mxCell id="B9slBTH1BqJqdPTxlTyz-10" value="Raspberry PI&lt;br&gt;Micro-controller" style="rounded=1;whiteSpace=wrap;html=1;shadow=1;glass=1;fillColor=#FF9933;fontColor=#ffffff;strokeColor=#A50040;" vertex="1" parent="1">
          <mxGeometry x="370" y="720" width="120" height="60" as="geometry" />
        </mxCell>
        <mxCell id="B9slBTH1BqJqdPTxlTyz-11" value="" style="endArrow=classic;html=1;rounded=1;strokeWidth=3;shadow=1;strokeColor=#404040;entryX=0.5;entryY=0;entryDx=0;entryDy=0;exitX=0.544;exitY=1.008;exitDx=0;exitDy=0;exitPerimeter=0;" edge="1" parent="1" source="B9slBTH1BqJqdPTxlTyz-9" target="B9slBTH1BqJqdPTxlTyz-10">
          <mxGeometry width="50" height="50" relative="1" as="geometry">
            <mxPoint x="395" y="635" as="sourcePoint" />
            <mxPoint x="470" y="634.8699999999999" as="targetPoint" />
          </mxGeometry>
        </mxCell>
        <mxCell id="B9slBTH1BqJqdPTxlTyz-12" value="&lt;b style=&quot;border-color: var(--border-color);&quot;&gt;&lt;font style=&quot;border-color: var(--border-color); font-size: 14px;&quot; color=&quot;#4d4d4d&quot;&gt;GPS system&lt;/font&gt;&lt;/b&gt;" style="text;html=1;align=center;verticalAlign=middle;resizable=0;points=[];autosize=1;strokeColor=none;fillColor=none;" vertex="1" parent="1">
          <mxGeometry x="375" y="560" width="110" height="30" as="geometry" />
        </mxCell>
        <mxCell id="B9slBTH1BqJqdPTxlTyz-16" value="" style="endArrow=classic;html=1;rounded=1;strokeWidth=3;shadow=1;strokeColor=#404040;exitX=0.448;exitY=-0.003;exitDx=0;exitDy=0;exitPerimeter=0;entryX=-0.01;entryY=0.541;entryDx=0;entryDy=0;entryPerimeter=0;" edge="1" parent="1" source="B9slBTH1BqJqdPTxlTyz-5">
          <mxGeometry width="50" height="50" relative="1" as="geometry">
            <mxPoint x="993" y="224.8" as="sourcePoint" />
            <mxPoint x="1020" y="224.8" as="targetPoint" />
            <Array as="points">
              <mxPoint x="946" y="225" />
            </Array>
          </mxGeometry>
        </mxCell>
        <mxCell id="B9slBTH1BqJqdPTxlTyz-18" value="" style="endArrow=classic;html=1;rounded=1;strokeWidth=3;shadow=1;strokeColor=#404040;exitX=1.013;exitY=0.541;exitDx=0;exitDy=0;exitPerimeter=0;entryX=-0.01;entryY=0.541;entryDx=0;entryDy=0;entryPerimeter=0;" edge="1" parent="1">
          <mxGeometry width="50" height="50" relative="1" as="geometry">
            <mxPoint x="990" y="314.79" as="sourcePoint" />
            <mxPoint x="1017" y="314.79" as="targetPoint" />
          </mxGeometry>
        </mxCell>
        <mxCell id="B9slBTH1BqJqdPTxlTyz-19" value="" style="endArrow=classic;html=1;rounded=1;strokeWidth=3;shadow=1;strokeColor=#404040;exitX=0.5;exitY=1;exitDx=0;exitDy=0;entryX=0;entryY=0.5;entryDx=0;entryDy=0;" edge="1" parent="1" source="B9slBTH1BqJqdPTxlTyz-5" target="B9slBTH1BqJqdPTxlTyz-2">
          <mxGeometry width="50" height="50" relative="1" as="geometry">
            <mxPoint x="946" y="460.2" as="sourcePoint" />
            <mxPoint x="1020" y="410" as="targetPoint" />
            <Array as="points">
              <mxPoint x="950" y="405" />
            </Array>
          </mxGeometry>
        </mxCell>
      </root>
    </mxGraphModel>
  </diagram>
</mxfile>
